<svg width="106" height="29" viewBox="0 0 106 29" fill="none" xmlns="http://www.w3.org/2000/svg">
<path d="M4.616 3.45603V9.12003H7.208C9.13867 9.12003 10.104 8.17603 10.104 6.28803C10.104 4.40003 9.13867 3.45603 7.208 3.45603H4.616ZM0.104004 12V0.576025H8.888C10.8933 0.576025 12.3653 1.00269 13.304 1.85603C14.3067 2.76269 14.808 4.24003 14.808 6.28803C14.808 8.26136 14.312 9.71736 13.32 10.656C12.36 11.552 10.9147 12 8.984 12H0.104004Z" fill="url(#paint0_linear_328_248)"/>
<path d="M19.8729 6.54403H24.6409C24.5982 6.07469 24.3635 5.70136 23.9369 5.42403C23.5102 5.14669 22.9555 5.00803 22.2729 5.00803C20.8649 5.00803 20.0649 5.52003 19.8729 6.54403ZM24.3689 9.37603H28.6249C28.3155 10.3147 27.6489 11.04 26.6249 11.552C25.5582 12.0854 24.1449 12.352 22.3849 12.352C17.9795 12.352 15.7769 10.7734 15.7769 7.61602C15.7769 6.11202 16.3209 4.94936 17.4089 4.12803C18.5075 3.30669 20.0435 2.89603 22.0169 2.89603C26.5075 2.89603 28.7262 4.78403 28.6729 8.56003H19.8729C19.8729 8.94403 20.0542 9.28536 20.4169 9.58403C20.8649 9.95736 21.4889 10.144 22.2889 10.144C23.2702 10.144 23.9635 9.88803 24.3689 9.37603Z" fill="url(#paint1_linear_328_248)"/>
<path d="M36.7228 8.92803L32.8188 8.52803C31.7094 8.41069 30.9201 8.12269 30.4508 7.66403C30.0348 7.24803 29.8268 6.64003 29.8268 5.84003C29.8268 4.81603 30.3121 4.06936 31.2828 3.60003C32.2214 3.13069 33.6774 2.89603 35.6508 2.89603C39.4481 2.89603 41.3788 3.88803 41.4428 5.87203H36.9308C36.9308 5.36003 36.4348 5.10403 35.4428 5.10403C34.4934 5.10403 34.0188 5.30669 34.0188 5.71203C34.0188 6.01069 34.3761 6.19203 35.0908 6.25603L38.8988 6.59202C40.8828 6.76269 41.8748 7.64269 41.8748 9.23203C41.8748 10.3414 41.3788 11.1414 40.3868 11.632C39.4054 12.112 37.8428 12.352 35.6988 12.352C33.6081 12.352 32.0828 12.1174 31.1228 11.648C30.1734 11.168 29.6668 10.3787 29.6028 9.28003H34.3068C34.3601 9.65336 34.5628 9.90403 34.9148 10.032C35.1281 10.1067 35.4694 10.144 35.9388 10.144C36.8241 10.144 37.2668 9.92003 37.2668 9.47203C37.2668 9.14136 37.0854 8.96003 36.7228 8.92803Z" fill="url(#paint2_linear_328_248)"/>
<path d="M43.2256 12V3.24802H47.2256V12H43.2256ZM43.2256 2.38403V0.176025H47.2256V2.38403H43.2256Z" fill="url(#paint3_linear_328_248)"/>
<path d="M57.4355 11.264V10.512C56.7208 11.1414 55.5635 11.456 53.9635 11.456C52.2462 11.456 50.9342 11.0987 50.0275 10.384C49.1208 9.65869 48.6675 8.60803 48.6675 7.23203C48.6675 5.89869 49.1795 4.84803 50.2035 4.08003C51.1635 3.36536 52.4168 3.00803 53.9635 3.00803C55.5208 3.00803 56.7208 3.41869 57.5635 4.24003V3.24802H61.4355V11.376C61.4355 12.7414 60.9182 13.7387 59.8835 14.368C58.9022 14.9654 57.3875 15.264 55.3395 15.264C53.1848 15.264 51.6382 15.0294 50.6995 14.56C49.7608 14.0907 49.1955 13.3014 49.0035 12.192H53.4195C53.5475 12.768 54.1555 13.056 55.2435 13.056C56.0435 13.056 56.6088 12.912 56.9395 12.624C57.2702 12.336 57.4355 11.8827 57.4355 11.264ZM57.4355 7.31203C57.4355 6.17069 56.6675 5.60003 55.1315 5.60003C54.3528 5.60003 53.7662 5.77069 53.3715 6.11203C53.0302 6.41069 52.8595 6.81069 52.8595 7.31203C52.8595 8.47469 53.6168 9.05603 55.1315 9.05603C56.6675 9.05603 57.4355 8.47469 57.4355 7.31203Z" fill="url(#paint4_linear_328_248)"/>
<path d="M63.3506 12V3.24802H67.2226V4.33603H67.2546C67.5 4.00536 67.916 3.71203 68.5026 3.45603C69.2066 3.15736 69.996 3.00803 70.8706 3.00803C72.044 3.00803 72.9666 3.27469 73.6386 3.80803C74.3746 4.39469 74.7426 5.26936 74.7426 6.43202V12H70.7426V7.47203C70.7426 6.41603 70.2306 5.88803 69.2066 5.88803C67.9693 5.88803 67.3506 6.58136 67.3506 7.96803V12H63.3506Z" fill="url(#paint5_linear_328_248)"/>
<path d="M0.104004 28V16.576H9.608C10.8453 16.576 11.7467 16.7147 12.312 16.992C12.7493 17.2054 13.1173 17.568 13.416 18.08C13.7147 18.592 13.864 19.152 13.864 19.76C13.864 21.1574 13.2773 22.0267 12.104 22.368V22.4C12.8933 22.624 13.3253 23.2107 13.4 24.16L13.592 26.656C13.624 27.136 13.8107 27.584 14.152 28H9.224C9.13867 27.8187 9.05867 27.0987 8.984 25.84C8.93067 24.9334 8.54134 24.48 7.816 24.48H4.616V28H0.104004ZM4.616 19.456V21.6H7.816C8.648 21.6 9.064 21.2427 9.064 20.528C9.064 19.8134 8.62667 19.456 7.752 19.456H4.616Z" fill="url(#paint6_linear_328_248)"/>
<path d="M18.9666 22.544H23.7346C23.692 22.0747 23.4573 21.7014 23.0306 21.424C22.604 21.1467 22.0493 21.008 21.3666 21.008C19.9586 21.008 19.1586 21.52 18.9666 22.544ZM23.4626 25.376H27.7186C27.4093 26.3147 26.7426 27.04 25.7186 27.552C24.652 28.0854 23.2386 28.352 21.4786 28.352C17.0733 28.352 14.8706 26.7734 14.8706 23.616C14.8706 22.112 15.4146 20.9494 16.5026 20.128C17.6013 19.3067 19.1373 18.896 21.1106 18.896C25.6013 18.896 27.82 20.784 27.7666 24.56H18.9666C18.9666 24.944 19.148 25.2854 19.5106 25.584C19.9586 25.9574 20.5826 26.144 21.3826 26.144C22.364 26.144 23.0573 25.888 23.4626 25.376Z" fill="url(#paint7_linear_328_248)"/>
<path d="M35.8165 24.928L31.9125 24.528C30.8032 24.4107 30.0138 24.1227 29.5445 23.664C29.1285 23.248 28.9205 22.64 28.9205 21.84C28.9205 20.816 29.4058 20.0694 30.3765 19.6C31.3152 19.1307 32.7712 18.896 34.7445 18.896C38.5418 18.896 40.4725 19.888 40.5365 21.872H36.0245C36.0245 21.36 35.5285 21.104 34.5365 21.104C33.5872 21.104 33.1125 21.3067 33.1125 21.712C33.1125 22.0107 33.4698 22.192 34.1845 22.256L37.9925 22.592C39.9765 22.7627 40.9685 23.6427 40.9685 25.232C40.9685 26.3414 40.4725 27.1414 39.4805 27.632C38.4992 28.112 36.9365 28.352 34.7925 28.352C32.7018 28.352 31.1765 28.1174 30.2165 27.648C29.2672 27.168 28.7605 26.3787 28.6965 25.28H33.4005C33.4538 25.6534 33.6565 25.904 34.0085 26.032C34.2218 26.1067 34.5632 26.144 35.0325 26.144C35.9178 26.144 36.3605 25.92 36.3605 25.472C36.3605 25.1414 36.1792 24.96 35.8165 24.928Z" fill="url(#paint8_linear_328_248)"/>
<path d="M46.0314 23.616C46.0314 25.0454 46.794 25.76 48.3194 25.76C49.8447 25.76 50.6074 25.0454 50.6074 23.616C50.6074 22.1974 49.8447 21.488 48.3194 21.488C46.794 21.488 46.0314 22.1974 46.0314 23.616ZM41.8394 23.616C41.8394 21.9947 42.3567 20.8054 43.3914 20.048C44.4367 19.28 46.0794 18.896 48.3194 18.896C50.5594 18.896 52.1967 19.28 53.2314 20.048C54.2767 20.8054 54.7994 21.9947 54.7994 23.616C54.7994 25.2374 54.2767 26.432 53.2314 27.2C52.1967 27.968 50.5594 28.352 48.3194 28.352C46.0794 28.352 44.4367 27.968 43.3914 27.2C42.3567 26.432 41.8394 25.2374 41.8394 23.616Z" fill="url(#paint9_linear_328_248)"/>
<path d="M67.6333 19.248V28H63.7613V27.024H63.7293C63.4839 27.3547 63.0679 27.648 62.4813 27.904C61.7773 28.2027 60.9879 28.352 60.1133 28.352C58.9399 28.352 58.0173 28.0854 57.3453 27.552C56.6093 26.9654 56.2413 26.0907 56.2413 24.928V19.248H60.2413V23.888C60.2413 24.944 60.7533 25.472 61.7773 25.472C63.0146 25.472 63.6333 24.7734 63.6333 23.376V19.248H67.6333Z" fill="url(#paint10_linear_328_248)"/>
<path d="M69.5538 28V19.248H73.4258V20.928H73.4577C74.4391 19.648 75.6818 19.008 77.1858 19.008C77.6338 19.008 78.0711 19.04 78.4978 19.104V22.688C77.6444 22.4747 76.9778 22.368 76.4978 22.368C74.5351 22.368 73.5538 23.152 73.5538 24.72V28H69.5538Z" fill="url(#paint11_linear_328_248)"/>
<path d="M92.1439 22.768H87.9519C87.9092 22.2667 87.6585 21.8987 87.1999 21.664C86.8479 21.4827 86.3679 21.392 85.7599 21.392C84.1492 21.392 83.3439 22.112 83.3439 23.552C83.3439 24.2347 83.5465 24.7734 83.9519 25.168C84.3572 25.5627 84.9492 25.76 85.7279 25.76C86.9759 25.76 87.7172 25.2747 87.9519 24.304H92.1439C91.9625 25.9254 91.1839 27.056 89.8079 27.696C88.8479 28.1334 87.4826 28.352 85.7119 28.352C81.3386 28.352 79.1519 26.768 79.1519 23.6C79.1519 20.464 81.3386 18.896 85.7119 18.896C87.6746 18.896 89.1625 19.1787 90.1759 19.744C91.2745 20.352 91.9305 21.36 92.1439 22.768Z" fill="url(#paint12_linear_328_248)"/>
<path d="M97.1698 22.544H101.938C101.895 22.0747 101.66 21.7014 101.234 21.424C100.807 21.1467 100.252 21.008 99.5697 21.008C98.1617 21.008 97.3618 21.52 97.1698 22.544ZM101.666 25.376H105.922C105.612 26.3147 104.946 27.04 103.922 27.552C102.855 28.0854 101.442 28.352 99.6817 28.352C95.2764 28.352 93.0738 26.7734 93.0738 23.616C93.0738 22.112 93.6177 20.9494 94.7057 20.128C95.8044 19.3067 97.3404 18.896 99.3138 18.896C103.804 18.896 106.023 20.784 105.97 24.56H97.1698C97.1698 24.944 97.3511 25.2854 97.7138 25.584C98.1618 25.9574 98.7858 26.144 99.5858 26.144C100.567 26.144 101.26 25.888 101.666 25.376Z" fill="url(#paint13_linear_328_248)"/>
<defs>
<linearGradient id="paint0_linear_328_248" x1="-1" y1="-1.99993" x2="105.558" y2="0.044434" gradientUnits="userSpaceOnUse">
<stop stop-color="#A4AAF5"/>
<stop offset="0.322917" stop-color="#E6B092"/>
<stop offset="0.619792" stop-color="#EB642E"/>
<stop offset="0.807292" stop-color="#E74F1E"/>
<stop offset="0.994792" stop-color="#B2A7E4"/>
</linearGradient>
<linearGradient id="paint1_linear_328_248" x1="-1" y1="-1.99993" x2="105.558" y2="0.044434" gradientUnits="userSpaceOnUse">
<stop stop-color="#A4AAF5"/>
<stop offset="0.322917" stop-color="#E6B092"/>
<stop offset="0.619792" stop-color="#EB642E"/>
<stop offset="0.807292" stop-color="#E74F1E"/>
<stop offset="0.994792" stop-color="#B2A7E4"/>
</linearGradient>
<linearGradient id="paint2_linear_328_248" x1="-1" y1="-1.99993" x2="105.558" y2="0.044434" gradientUnits="userSpaceOnUse">
<stop stop-color="#A4AAF5"/>
<stop offset="0.322917" stop-color="#E6B092"/>
<stop offset="0.619792" stop-color="#EB642E"/>
<stop offset="0.807292" stop-color="#E74F1E"/>
<stop offset="0.994792" stop-color="#B2A7E4"/>
</linearGradient>
<linearGradient id="paint3_linear_328_248" x1="-1" y1="-1.99993" x2="105.558" y2="0.044434" gradientUnits="userSpaceOnUse">
<stop stop-color="#A4AAF5"/>
<stop offset="0.322917" stop-color="#E6B092"/>
<stop offset="0.619792" stop-color="#EB642E"/>
<stop offset="0.807292" stop-color="#E74F1E"/>
<stop offset="0.994792" stop-color="#B2A7E4"/>
</linearGradient>
<linearGradient id="paint4_linear_328_248" x1="-1" y1="-1.99993" x2="105.558" y2="0.044434" gradientUnits="userSpaceOnUse">
<stop stop-color="#A4AAF5"/>
<stop offset="0.322917" stop-color="#E6B092"/>
<stop offset="0.619792" stop-color="#EB642E"/>
<stop offset="0.807292" stop-color="#E74F1E"/>
<stop offset="0.994792" stop-color="#B2A7E4"/>
</linearGradient>
<linearGradient id="paint5_linear_328_248" x1="-1" y1="-1.99993" x2="105.558" y2="0.044434" gradientUnits="userSpaceOnUse">
<stop stop-color="#A4AAF5"/>
<stop offset="0.322917" stop-color="#E6B092"/>
<stop offset="0.619792" stop-color="#EB642E"/>
<stop offset="0.807292" stop-color="#E74F1E"/>
<stop offset="0.994792" stop-color="#B2A7E4"/>
</linearGradient>
<linearGradient id="paint6_linear_328_248" x1="-1" y1="-1.99993" x2="105.558" y2="0.044434" gradientUnits="userSpaceOnUse">
<stop stop-color="#A4AAF5"/>
<stop offset="0.322917" stop-color="#E6B092"/>
<stop offset="0.619792" stop-color="#EB642E"/>
<stop offset="0.807292" stop-color="#E74F1E"/>
<stop offset="0.994792" stop-color="#B2A7E4"/>
</linearGradient>
<linearGradient id="paint7_linear_328_248" x1="-1" y1="-1.99993" x2="105.558" y2="0.044434" gradientUnits="userSpaceOnUse">
<stop stop-color="#A4AAF5"/>
<stop offset="0.322917" stop-color="#E6B092"/>
<stop offset="0.619792" stop-color="#EB642E"/>
<stop offset="0.807292" stop-color="#E74F1E"/>
<stop offset="0.994792" stop-color="#B2A7E4"/>
</linearGradient>
<linearGradient id="paint8_linear_328_248" x1="-1" y1="-1.99993" x2="105.558" y2="0.044434" gradientUnits="userSpaceOnUse">
<stop stop-color="#A4AAF5"/>
<stop offset="0.322917" stop-color="#E6B092"/>
<stop offset="0.619792" stop-color="#EB642E"/>
<stop offset="0.807292" stop-color="#E74F1E"/>
<stop offset="0.994792" stop-color="#B2A7E4"/>
</linearGradient>
<linearGradient id="paint9_linear_328_248" x1="-1" y1="-1.99993" x2="105.558" y2="0.044434" gradientUnits="userSpaceOnUse">
<stop stop-color="#A4AAF5"/>
<stop offset="0.322917" stop-color="#E6B092"/>
<stop offset="0.619792" stop-color="#EB642E"/>
<stop offset="0.807292" stop-color="#E74F1E"/>
<stop offset="0.994792" stop-color="#B2A7E4"/>
</linearGradient>
<linearGradient id="paint10_linear_328_248" x1="-1" y1="-1.99993" x2="105.558" y2="0.044434" gradientUnits="userSpaceOnUse">
<stop stop-color="#A4AAF5"/>
<stop offset="0.322917" stop-color="#E6B092"/>
<stop offset="0.619792" stop-color="#EB642E"/>
<stop offset="0.807292" stop-color="#E74F1E"/>
<stop offset="0.994792" stop-color="#B2A7E4"/>
</linearGradient>
<linearGradient id="paint11_linear_328_248" x1="-1" y1="-1.99993" x2="105.558" y2="0.044434" gradientUnits="userSpaceOnUse">
<stop stop-color="#A4AAF5"/>
<stop offset="0.322917" stop-color="#E6B092"/>
<stop offset="0.619792" stop-color="#EB642E"/>
<stop offset="0.807292" stop-color="#E74F1E"/>
<stop offset="0.994792" stop-color="#B2A7E4"/>
</linearGradient>
<linearGradient id="paint12_linear_328_248" x1="-1" y1="-1.99993" x2="105.558" y2="0.044434" gradientUnits="userSpaceOnUse">
<stop stop-color="#A4AAF5"/>
<stop offset="0.322917" stop-color="#E6B092"/>
<stop offset="0.619792" stop-color="#EB642E"/>
<stop offset="0.807292" stop-color="#E74F1E"/>
<stop offset="0.994792" stop-color="#B2A7E4"/>
</linearGradient>
<linearGradient id="paint13_linear_328_248" x1="-1" y1="-1.99993" x2="105.558" y2="0.044434" gradientUnits="userSpaceOnUse">
<stop stop-color="#A4AAF5"/>
<stop offset="0.322917" stop-color="#E6B092"/>
<stop offset="0.619792" stop-color="#EB642E"/>
<stop offset="0.807292" stop-color="#E74F1E"/>
<stop offset="0.994792" stop-color="#B2A7E4"/>
</linearGradient>
</defs>
</svg>
