<svg width="364" height="27" viewBox="0 0 364 27" fill="none" xmlns="http://www.w3.org/2000/svg">
<path d="M9.62548 5.86956V16.0053H14.5805C18.2714 16.0053 20.1168 14.316 20.1168 10.9374C20.1168 7.55885 18.2714 5.86956 14.5805 5.86956H9.62548ZM1 21.1591V0.7158H17.7922C21.6257 0.7158 24.4397 1.47932 26.2341 3.00636C28.1509 4.62884 29.1093 7.27253 29.1093 10.9374C29.1093 14.4687 28.1611 17.0742 26.2647 18.754C24.4295 20.3574 21.6665 21.1591 17.9757 21.1591H1Z" fill="url(#paint0_linear_259_24)"/>
<path d="M38.7917 11.3955H47.9066C47.825 10.5557 47.3764 9.88759 46.5607 9.39131C45.7451 8.89502 44.6847 8.64687 43.3797 8.64687C40.6881 8.64687 39.1587 9.5631 38.7917 11.3955ZM47.3866 16.4634H55.5227C54.9313 18.1432 53.6569 19.4411 51.6993 20.3574C49.6602 21.3118 46.9584 21.789 43.5938 21.789C35.1722 21.789 30.9615 18.9639 30.9615 13.3139C30.9615 10.6225 32.0014 8.54189 34.0813 7.07211C36.1816 5.60233 39.1179 4.86745 42.8903 4.86745C51.475 4.86745 55.7164 8.24602 55.6144 15.0032H38.7917C38.7917 15.6904 39.1383 16.3012 39.8316 16.8356C40.6881 17.5037 41.881 17.8378 43.4103 17.8378C45.2863 17.8378 46.6117 17.3796 47.3866 16.4634Z" fill="url(#paint1_linear_259_24)"/>
<path d="M71.0032 15.6617L63.54 14.9459C61.4193 14.7359 59.9104 14.2206 59.0132 13.3998C58.2179 12.6554 57.8203 11.5673 57.8203 10.1357C57.8203 8.30329 58.7481 6.96713 60.6037 6.12725C62.3981 5.28738 65.1815 4.86745 68.9539 4.86745C76.2131 4.86745 79.9039 6.64263 80.0263 10.193H71.4008C71.4008 9.27678 70.4526 8.81866 68.5562 8.81866C66.7414 8.81866 65.834 9.18134 65.834 9.90668C65.834 10.4411 66.5171 10.7656 67.8833 10.8802L75.163 11.4814C78.9558 11.7869 80.8521 13.3616 80.8521 16.2057C80.8521 18.1909 79.904 19.6225 78.0076 20.5005C76.1316 21.3595 73.1443 21.789 69.0456 21.789C65.049 21.789 62.133 21.369 60.2978 20.5292C58.483 19.6702 57.5144 18.2577 57.392 16.2916H66.3846C66.4865 16.9597 66.874 17.4083 67.5469 17.6373C67.9547 17.7709 68.6072 17.8378 69.5044 17.8378C71.1969 17.8378 72.0431 17.4369 72.0431 16.6352C72.0431 16.0435 71.6965 15.719 71.0032 15.6617Z" fill="url(#paint2_linear_259_24)"/>
<path d="M83.4346 21.1591V5.49735H91.0813V21.1591H83.4346ZM83.4346 3.95122V0H91.0813V3.95122H83.4346Z" fill="url(#paint3_linear_259_24)"/>
<path d="M110.599 19.842V18.4963C109.233 19.6225 107.021 20.1856 103.962 20.1856C100.679 20.1856 98.1708 19.5461 96.4376 18.2672C94.7043 16.9692 93.8377 15.0891 93.8377 12.6267C93.8377 10.2407 94.8165 8.36055 96.774 6.98621C98.6092 5.70732 101.005 5.06787 103.962 5.06787C106.939 5.06787 109.233 5.80276 110.844 7.27254V5.49735H118.246V20.0424C118.246 22.4857 117.257 24.2704 115.279 25.3966C113.403 26.4655 110.508 27 106.592 27C102.473 27 99.5166 26.5801 97.7222 25.7402C95.9278 24.9003 94.847 23.4878 94.48 21.5027H102.922C103.167 22.5334 104.329 23.0488 106.409 23.0488C107.938 23.0488 109.019 22.7911 109.651 22.2757C110.283 21.7603 110.599 20.9491 110.599 19.842ZM110.599 12.7699C110.599 10.7275 109.131 9.70626 106.195 9.70626C104.706 9.70626 103.585 10.0117 102.83 10.6225C102.178 11.1569 101.851 11.8727 101.851 12.7699C101.851 14.8505 103.299 15.8908 106.195 15.8908C109.131 15.8908 110.599 14.8505 110.599 12.7699Z" fill="url(#paint4_linear_259_24)"/>
<path d="M121.907 21.1591V5.49735H129.309V7.44433H129.37C129.839 6.8526 130.635 6.32768 131.756 5.86956C133.102 5.3351 134.611 5.06787 136.283 5.06787C138.526 5.06787 140.29 5.54507 141.574 6.49947C142.981 7.54931 143.685 9.11453 143.685 11.1951V21.1591H136.038V13.0562C136.038 11.1665 135.059 10.2216 133.102 10.2216C130.736 10.2216 129.554 11.4624 129.554 13.9438V21.1591H121.907Z" fill="url(#paint5_linear_259_24)"/>
<path d="M160.117 21.1591V0.7158H178.286C180.651 0.7158 182.374 0.963944 183.455 1.46023C184.291 1.84199 184.994 2.49099 185.565 3.40721C186.136 4.32344 186.422 5.32556 186.422 6.41357C186.422 8.9141 185.3 10.4698 183.057 11.0806V11.1379C184.566 11.5387 185.392 12.5885 185.535 14.2874L185.902 18.754C185.963 19.6129 186.32 20.4146 186.972 21.1591H177.552C177.389 20.8346 177.236 19.5461 177.093 17.2937C176.991 15.6713 176.247 14.86 174.86 14.86H168.743V21.1591H160.117ZM168.743 5.86956V9.70626H174.86C176.451 9.70626 177.246 9.06681 177.246 7.78791C177.246 6.50901 176.41 5.86956 174.738 5.86956H168.743Z" fill="url(#paint6_linear_259_24)"/>
<path d="M196.176 11.3955H205.291C205.21 10.5557 204.761 9.88759 203.945 9.39131C203.13 8.89502 202.069 8.64687 200.764 8.64687C198.073 8.64687 196.543 9.5631 196.176 11.3955ZM204.771 16.4634H212.907C212.316 18.1432 211.042 19.4411 209.084 20.3574C207.045 21.3118 204.343 21.789 200.979 21.789C192.557 21.789 188.346 18.9639 188.346 13.3139C188.346 10.6225 189.386 8.54189 191.466 7.07211C193.566 5.60233 196.503 4.86745 200.275 4.86745C208.86 4.86745 213.101 8.24602 212.999 15.0032H196.176C196.176 15.6904 196.523 16.3012 197.216 16.8356C198.073 17.5037 199.266 17.8378 200.795 17.8378C202.671 17.8378 203.996 17.3796 204.771 16.4634Z" fill="url(#paint7_linear_259_24)"/>
<path d="M228.388 15.6617L220.925 14.9459C218.804 14.7359 217.295 14.2206 216.398 13.3998C215.603 12.6554 215.205 11.5673 215.205 10.1357C215.205 8.30329 216.133 6.96713 217.988 6.12725C219.783 5.28738 222.566 4.86745 226.339 4.86745C233.598 4.86745 237.289 6.64263 237.411 10.193H228.786C228.786 9.27678 227.837 8.81866 225.941 8.81866C224.126 8.81866 223.219 9.18134 223.219 9.90668C223.219 10.4411 223.902 10.7656 225.268 10.8802L232.548 11.4814C236.34 11.7869 238.237 13.3616 238.237 16.2057C238.237 18.1909 237.289 19.6225 235.392 20.5005C233.516 21.3595 230.529 21.789 226.43 21.789C222.434 21.789 219.518 21.369 217.683 20.5292C215.868 19.6702 214.899 18.2577 214.777 16.2916H223.769C223.871 16.9597 224.259 17.4083 224.932 17.6373C225.339 17.7709 225.992 17.8378 226.889 17.8378C228.582 17.8378 229.428 17.4369 229.428 16.6352C229.428 16.0435 229.081 15.719 228.388 15.6617Z" fill="url(#paint8_linear_259_24)"/>
<path d="M247.915 13.3139C247.915 15.8717 249.373 17.1506 252.289 17.1506C255.205 17.1506 256.663 15.8717 256.663 13.3139C256.663 10.7752 255.205 9.50583 252.289 9.50583C249.373 9.50583 247.915 10.7752 247.915 13.3139ZM239.902 13.3139C239.902 10.4125 240.891 8.2842 242.869 6.92895C244.867 5.55461 248.007 4.86745 252.289 4.86745C256.571 4.86745 259.702 5.55461 261.68 6.92895C263.678 8.2842 264.677 10.4125 264.677 13.3139C264.677 16.2153 263.678 18.3531 261.68 19.7275C259.702 21.1018 256.571 21.789 252.289 21.789C248.007 21.789 244.867 21.1018 242.869 19.7275C240.891 18.3531 239.902 16.2153 239.902 13.3139Z" fill="url(#paint9_linear_259_24)"/>
<path d="M289.211 5.49735V21.1591H281.809V19.4125H281.748C281.279 20.0042 280.484 20.5292 279.362 20.9873C278.016 21.5217 276.507 21.789 274.835 21.789C272.592 21.789 270.829 21.3118 269.544 20.3574C268.137 19.3075 267.433 17.7423 267.433 15.6617V5.49735H275.08V13.8006C275.08 15.6904 276.059 16.6352 278.016 16.6352C280.382 16.6352 281.564 15.3849 281.564 12.8844V5.49735H289.211Z" fill="url(#paint10_linear_259_24)"/>
<path d="M292.883 21.1591V5.49735H300.285V8.50371H300.346C302.222 6.21315 304.597 5.06787 307.472 5.06787C308.329 5.06787 309.165 5.12513 309.981 5.23966V11.6532C308.349 11.2715 307.075 11.0806 306.157 11.0806C302.405 11.0806 300.529 12.4836 300.529 15.2895V21.1591H292.883Z" fill="url(#paint11_linear_259_24)"/>
<path d="M336.068 11.7964H328.054C327.972 10.8993 327.493 10.2407 326.616 9.82079C325.943 9.49629 325.026 9.33404 323.863 9.33404C320.784 9.33404 319.245 10.6225 319.245 13.1994C319.245 14.421 319.632 15.3849 320.407 16.0912C321.182 16.7975 322.314 17.1506 323.802 17.1506C326.188 17.1506 327.605 16.2821 328.054 14.5451H336.068C335.721 17.4464 334.232 19.4698 331.602 20.6151C329.767 21.3977 327.157 21.789 323.772 21.789C315.411 21.789 311.231 18.9544 311.231 13.2853C311.231 7.67338 315.411 4.86745 323.772 4.86745C327.524 4.86745 330.368 5.37328 332.305 6.38494C334.406 7.47296 335.66 9.27678 336.068 11.7964Z" fill="url(#paint12_linear_259_24)"/>
<path d="M345.675 11.3955H354.79C354.709 10.5557 354.26 9.88759 353.444 9.39131C352.629 8.89502 351.569 8.64687 350.263 8.64687C347.572 8.64687 346.042 9.5631 345.675 11.3955ZM354.27 16.4634H362.406C361.815 18.1432 360.541 19.4411 358.583 20.3574C356.544 21.3118 353.842 21.789 350.478 21.789C342.056 21.789 337.845 18.9639 337.845 13.3139C337.845 10.6225 338.885 8.54189 340.965 7.07211C343.065 5.60233 346.002 4.86745 349.774 4.86745C358.359 4.86745 362.6 8.24602 362.498 15.0032H345.675C345.675 15.6904 346.022 16.3012 346.715 16.8356C347.572 17.5037 348.765 17.8378 350.294 17.8378C352.17 17.8378 353.495 17.3796 354.27 16.4634Z" fill="url(#paint13_linear_259_24)"/>
<defs>
<linearGradient id="paint0_linear_259_24" x1="1" y1="0" x2="355.75" y2="27" gradientUnits="userSpaceOnUse">
<stop stop-color="#A4AAF5"/>
<stop offset="0.322917" stop-color="#E6B092"/>
<stop offset="0.619792" stop-color="#EB642E"/>
<stop offset="0.807292" stop-color="#E74F1E"/>
<stop offset="0.994792" stop-color="#B2A7E4"/>
</linearGradient>
<linearGradient id="paint1_linear_259_24" x1="1" y1="0" x2="355.75" y2="27" gradientUnits="userSpaceOnUse">
<stop stop-color="#A4AAF5"/>
<stop offset="0.322917" stop-color="#E6B092"/>
<stop offset="0.619792" stop-color="#EB642E"/>
<stop offset="0.807292" stop-color="#E74F1E"/>
<stop offset="0.994792" stop-color="#B2A7E4"/>
</linearGradient>
<linearGradient id="paint2_linear_259_24" x1="1" y1="0" x2="355.75" y2="27" gradientUnits="userSpaceOnUse">
<stop stop-color="#A4AAF5"/>
<stop offset="0.322917" stop-color="#E6B092"/>
<stop offset="0.619792" stop-color="#EB642E"/>
<stop offset="0.807292" stop-color="#E74F1E"/>
<stop offset="0.994792" stop-color="#B2A7E4"/>
</linearGradient>
<linearGradient id="paint3_linear_259_24" x1="1" y1="0" x2="355.75" y2="27" gradientUnits="userSpaceOnUse">
<stop stop-color="#A4AAF5"/>
<stop offset="0.322917" stop-color="#E6B092"/>
<stop offset="0.619792" stop-color="#EB642E"/>
<stop offset="0.807292" stop-color="#E74F1E"/>
<stop offset="0.994792" stop-color="#B2A7E4"/>
</linearGradient>
<linearGradient id="paint4_linear_259_24" x1="1" y1="0" x2="355.75" y2="27" gradientUnits="userSpaceOnUse">
<stop stop-color="#A4AAF5"/>
<stop offset="0.322917" stop-color="#E6B092"/>
<stop offset="0.619792" stop-color="#EB642E"/>
<stop offset="0.807292" stop-color="#E74F1E"/>
<stop offset="0.994792" stop-color="#B2A7E4"/>
</linearGradient>
<linearGradient id="paint5_linear_259_24" x1="1" y1="0" x2="355.75" y2="27" gradientUnits="userSpaceOnUse">
<stop stop-color="#A4AAF5"/>
<stop offset="0.322917" stop-color="#E6B092"/>
<stop offset="0.619792" stop-color="#EB642E"/>
<stop offset="0.807292" stop-color="#E74F1E"/>
<stop offset="0.994792" stop-color="#B2A7E4"/>
</linearGradient>
<linearGradient id="paint6_linear_259_24" x1="1" y1="0" x2="355.75" y2="27" gradientUnits="userSpaceOnUse">
<stop stop-color="#A4AAF5"/>
<stop offset="0.322917" stop-color="#E6B092"/>
<stop offset="0.619792" stop-color="#EB642E"/>
<stop offset="0.807292" stop-color="#E74F1E"/>
<stop offset="0.994792" stop-color="#B2A7E4"/>
</linearGradient>
<linearGradient id="paint7_linear_259_24" x1="1" y1="0" x2="355.75" y2="27" gradientUnits="userSpaceOnUse">
<stop stop-color="#A4AAF5"/>
<stop offset="0.322917" stop-color="#E6B092"/>
<stop offset="0.619792" stop-color="#EB642E"/>
<stop offset="0.807292" stop-color="#E74F1E"/>
<stop offset="0.994792" stop-color="#B2A7E4"/>
</linearGradient>
<linearGradient id="paint8_linear_259_24" x1="1" y1="0" x2="355.75" y2="27" gradientUnits="userSpaceOnUse">
<stop stop-color="#A4AAF5"/>
<stop offset="0.322917" stop-color="#E6B092"/>
<stop offset="0.619792" stop-color="#EB642E"/>
<stop offset="0.807292" stop-color="#E74F1E"/>
<stop offset="0.994792" stop-color="#B2A7E4"/>
</linearGradient>
<linearGradient id="paint9_linear_259_24" x1="1" y1="0" x2="355.75" y2="27" gradientUnits="userSpaceOnUse">
<stop stop-color="#A4AAF5"/>
<stop offset="0.322917" stop-color="#E6B092"/>
<stop offset="0.619792" stop-color="#EB642E"/>
<stop offset="0.807292" stop-color="#E74F1E"/>
<stop offset="0.994792" stop-color="#B2A7E4"/>
</linearGradient>
<linearGradient id="paint10_linear_259_24" x1="1" y1="0" x2="355.75" y2="27" gradientUnits="userSpaceOnUse">
<stop stop-color="#A4AAF5"/>
<stop offset="0.322917" stop-color="#E6B092"/>
<stop offset="0.619792" stop-color="#EB642E"/>
<stop offset="0.807292" stop-color="#E74F1E"/>
<stop offset="0.994792" stop-color="#B2A7E4"/>
</linearGradient>
<linearGradient id="paint11_linear_259_24" x1="1" y1="0" x2="355.75" y2="27" gradientUnits="userSpaceOnUse">
<stop stop-color="#A4AAF5"/>
<stop offset="0.322917" stop-color="#E6B092"/>
<stop offset="0.619792" stop-color="#EB642E"/>
<stop offset="0.807292" stop-color="#E74F1E"/>
<stop offset="0.994792" stop-color="#B2A7E4"/>
</linearGradient>
<linearGradient id="paint12_linear_259_24" x1="1" y1="0" x2="355.75" y2="27" gradientUnits="userSpaceOnUse">
<stop stop-color="#A4AAF5"/>
<stop offset="0.322917" stop-color="#E6B092"/>
<stop offset="0.619792" stop-color="#EB642E"/>
<stop offset="0.807292" stop-color="#E74F1E"/>
<stop offset="0.994792" stop-color="#B2A7E4"/>
</linearGradient>
<linearGradient id="paint13_linear_259_24" x1="1" y1="0" x2="355.75" y2="27" gradientUnits="userSpaceOnUse">
<stop stop-color="#A4AAF5"/>
<stop offset="0.322917" stop-color="#E6B092"/>
<stop offset="0.619792" stop-color="#EB642E"/>
<stop offset="0.807292" stop-color="#E74F1E"/>
<stop offset="0.994792" stop-color="#B2A7E4"/>
</linearGradient>
</defs>
</svg>
