<svg width="209" height="28" viewBox="0 0 209 28" fill="none" xmlns="http://www.w3.org/2000/svg">
<g clip-path="url(#clip0_790_890)">
<path d="M198.166 2.97196C192.191 2.97196 187.331 8.00034 187.331 14.1814C187.331 20.3626 192.191 25.3909 198.166 25.3909C201.884 25.3909 205.301 23.4531 207.305 20.206C207.559 19.7933 207.443 19.243 207.043 18.9798C206.851 18.8517 206.622 18.809 206.399 18.8588C206.171 18.9086 205.976 19.0485 205.852 19.2501C204.166 21.9802 201.294 23.612 198.168 23.612C195.878 23.612 193.686 22.7249 191.998 21.1168C190.336 19.53 189.307 17.3859 189.095 15.0733H208.139C208.615 15.0733 209 14.6748 209 14.1838C209 8.00271 204.14 2.97433 198.166 2.97433V2.97196ZM207.236 13.292H189.093C189.302 10.977 190.332 8.83287 191.996 7.24845C193.684 5.63795 195.874 4.75324 198.166 4.75324C200.457 4.75324 202.647 5.64032 204.335 7.24845C206 8.83524 207.027 10.9794 207.238 13.292H207.236Z" fill="black"/>
<path d="M186.551 2.9435H170.405C169.93 2.9435 169.545 3.34198 169.545 3.83295C169.545 4.32393 169.932 4.72241 170.405 4.72241H177.616V24.5015C177.616 24.9925 178.004 25.3909 178.477 25.3909C178.95 25.3909 179.338 24.9925 179.338 24.5015V4.72241H186.549C187.024 4.72241 187.41 4.32393 187.41 3.83295C187.41 3.34198 187.022 2.9435 186.549 2.9435H186.551Z" fill="black"/>
<path d="M77.7883 2.91266C71.9301 2.91266 67.1631 7.84379 67.1631 13.9063C67.1631 19.9688 71.9301 24.9 77.7883 24.9C78.9604 24.9 80.1112 24.7031 81.212 24.3165C81.6613 24.1576 81.9015 23.6523 81.7493 23.1898C81.6732 22.9598 81.5163 22.7771 81.3023 22.6728C81.0978 22.5731 80.8672 22.5589 80.6533 22.6348C79.7331 22.9598 78.7679 23.1234 77.7859 23.1234C72.8763 23.1234 68.8844 18.9892 68.8844 13.9087C68.8844 8.82812 72.8787 4.69394 77.7859 4.69394C82.6932 4.69394 86.6874 8.82812 86.6874 13.9087V24.5323C86.6874 25.0233 87.075 25.4218 87.5481 25.4218C88.0212 25.4218 88.4088 25.0233 88.4088 24.5323V13.9063C88.4088 7.84379 83.6418 2.91266 77.7836 2.91266H77.7883Z" fill="black"/>
<path d="M158.43 2.91266C152.571 2.91266 147.804 7.84379 147.804 13.9063C147.804 19.9688 152.571 24.9 158.43 24.9C159.602 24.9 160.753 24.7031 161.853 24.3165C162.303 24.1576 162.543 23.6523 162.391 23.1898C162.315 22.9598 162.158 22.7771 161.944 22.6728C161.739 22.5731 161.509 22.5589 161.295 22.6348C160.374 22.9598 159.409 23.1234 158.427 23.1234C153.518 23.1234 149.526 18.9892 149.526 13.9087C149.526 8.82812 153.52 4.69394 158.427 4.69394C163.335 4.69394 167.329 8.82812 167.329 13.9087V24.5323C167.329 25.0233 167.716 25.4218 168.189 25.4218C168.663 25.4218 169.05 25.0233 169.05 24.5323V13.9063C169.05 7.84379 164.283 2.91266 158.425 2.91266H158.43Z" fill="black"/>
<path d="M143.938 13.2588H138.113C137.636 13.2588 137.246 13.6596 137.246 14.1554C137.246 14.6511 137.636 15.0519 138.113 15.0519H143.03C142.819 17.3859 141.78 19.5514 140.103 21.15C138.401 22.7748 136.19 23.669 133.879 23.669C128.81 23.669 124.688 19.402 124.688 14.1554C124.688 8.90877 128.81 4.64176 133.879 4.64176C137.258 4.64176 140.358 6.5535 141.967 9.63219C142.079 9.84566 142.265 9.99983 142.493 10.0686C142.714 10.1327 142.945 10.1089 143.147 9.99509C143.568 9.76027 143.724 9.21474 143.496 8.78069C141.582 5.12088 137.897 2.84863 133.879 2.84863C127.854 2.84863 122.952 7.9197 122.952 14.1554C122.952 20.391 127.854 25.4621 133.879 25.4621C139.904 25.4621 144.806 20.391 144.806 14.1554C144.806 13.662 144.416 13.2588 143.938 13.2588V13.2588Z" fill="black"/>
<path d="M117.453 2.87709C116.977 2.87709 116.592 3.27556 116.592 3.76654V24.696C116.592 25.187 116.98 25.5854 117.453 25.5854C117.926 25.5854 118.313 25.187 118.313 24.696V3.76654C118.313 3.27556 117.926 2.87709 117.453 2.87709Z" fill="black"/>
<path d="M62.4151 2.68734C61.9372 2.68734 61.5497 3.07395 61.5497 3.5507V22.4261L43.5374 3.06446C43.2901 2.8083 42.9193 2.73003 42.5912 2.86285C42.2631 2.99568 42.0491 3.30877 42.0491 3.66455V24.696C42.0491 25.1727 42.4366 25.5593 42.9145 25.5593C43.3924 25.5593 43.7799 25.1727 43.7799 24.696V5.8111L61.7922 25.1703C62.0323 25.4194 62.4198 25.5024 62.7408 25.372C63.0689 25.2391 63.2829 24.926 63.2829 24.5703V3.55307C63.2829 3.07632 62.8953 2.68971 62.4175 2.68971L62.4151 2.68734Z" fill="black"/>
<path d="M111.038 2.88657C110.834 2.78221 110.603 2.76561 110.387 2.83914C110.166 2.91504 109.985 3.07395 109.883 3.29217L100.717 22.5257L91.5542 3.29217C91.4519 3.07632 91.2712 2.91504 91.0501 2.83914C90.8338 2.76561 90.6031 2.78221 90.3987 2.88657C89.9731 3.10242 89.7972 3.63846 90.0064 4.07726L99.9445 24.9332C100.09 25.2344 100.391 25.4289 100.717 25.4289C101.043 25.4289 101.347 25.2344 101.49 24.9332L111.428 4.07726C111.637 3.63846 111.461 3.10479 111.036 2.88657H111.038Z" fill="black"/>
<path d="M24.5362 0.692588V28H17.5272L11.6523 18.9537C11.0009 17.9504 9.88581 17.3455 8.68753 17.3455C6.73557 17.3455 5.15451 18.9228 5.15451 20.8701V28H0V1.2144C1.23632 0.557391 2.65096 0 5.04514 0C10.901 0 10.901 3.33723 16.7593 3.33723C20.8986 3.33723 22.1135 1.67217 24.5362 0.692588V0.692588Z" fill="#0057C1"/>
<path d="M24.5362 28H17.5272L11.6523 18.9537C11.0009 17.9504 9.88581 17.3455 8.68753 17.3455C6.73557 17.3455 5.15451 18.9228 5.15451 20.8701V28H0V11.6103C1.23632 10.951 2.65096 10.3936 5.04514 10.3936C10.901 10.3936 10.901 13.7308 16.7593 13.7308C20.8986 13.7308 22.1135 12.0657 24.5362 11.0862V28V28Z" fill="#00B6EA"/>
</g>
<defs>
<clipPath id="clip0_790_890">
<rect width="209" height="28" fill="white"/>
</clipPath>
</defs>
</svg>
