<svg width="209" height="28" viewBox="0 0 209 28" fill="none" xmlns="http://www.w3.org/2000/svg">
<path d="M198.166 2.97217C192.191 2.97217 187.331 8.00055 187.331 14.1817C187.331 20.3628 192.191 25.3911 198.166 25.3911C201.884 25.3911 205.301 23.4533 207.305 20.2062C207.559 19.7935 207.443 19.2432 207.043 18.98C206.851 18.8519 206.622 18.8092 206.399 18.859C206.171 18.9088 205.976 19.0487 205.852 19.2504C204.166 21.9804 201.294 23.6122 198.168 23.6122C195.878 23.6122 193.686 22.7252 191.998 21.117C190.336 19.5302 189.307 17.3861 189.095 15.0735H208.139C208.615 15.0735 209 14.675 209 14.184C209 8.00292 204.14 2.97454 198.166 2.97454V2.97217ZM207.236 13.2922H189.093C189.302 10.9773 190.332 8.83307 191.996 7.24866C193.684 5.63816 195.874 4.75345 198.166 4.75345C200.457 4.75345 202.647 5.64053 204.335 7.24866C206 8.83545 207.027 10.9796 207.238 13.2922H207.236Z" fill="white"/>
<path d="M186.551 2.94385H170.405C169.93 2.94385 169.545 3.34232 169.545 3.8333C169.545 4.32428 169.932 4.72275 170.405 4.72275H177.616V24.5018C177.616 24.9928 178.004 25.3913 178.477 25.3913C178.95 25.3913 179.338 24.9928 179.338 24.5018V4.72275H186.549C187.024 4.72275 187.41 4.32428 187.41 3.8333C187.41 3.34232 187.022 2.94385 186.549 2.94385H186.551Z" fill="white"/>
<path d="M77.7883 2.9126C71.9301 2.9126 67.1631 7.84373 67.1631 13.9062C67.1631 19.9688 71.9301 24.8999 77.7883 24.8999C78.9604 24.8999 80.1112 24.703 81.212 24.3164C81.6613 24.1575 81.9015 23.6523 81.7493 23.1898C81.6732 22.9597 81.5163 22.7771 81.3023 22.6727C81.0978 22.5731 80.8672 22.5588 80.6533 22.6347C79.7331 22.9597 78.7679 23.1234 77.7859 23.1234C72.8763 23.1234 68.8844 18.9892 68.8844 13.9086C68.8844 8.82806 72.8787 4.69388 77.7859 4.69388C82.6932 4.69388 86.6874 8.82806 86.6874 13.9086V24.5322C86.6874 25.0232 87.075 25.4217 87.5481 25.4217C88.0212 25.4217 88.4088 25.0232 88.4088 24.5322V13.9062C88.4088 7.84373 83.6418 2.9126 77.7836 2.9126H77.7883Z" fill="white"/>
<path d="M158.43 2.9126C152.571 2.9126 147.804 7.84373 147.804 13.9062C147.804 19.9688 152.571 24.8999 158.43 24.8999C159.602 24.8999 160.753 24.703 161.853 24.3164C162.303 24.1575 162.543 23.6523 162.391 23.1898C162.315 22.9597 162.158 22.7771 161.944 22.6727C161.739 22.5731 161.509 22.5588 161.295 22.6347C160.374 22.9597 159.409 23.1234 158.427 23.1234C153.518 23.1234 149.526 18.9892 149.526 13.9086C149.526 8.82806 153.52 4.69388 158.427 4.69388C163.335 4.69388 167.329 8.82806 167.329 13.9086V24.5322C167.329 25.0232 167.716 25.4217 168.189 25.4217C168.663 25.4217 169.05 25.0232 169.05 24.5322V13.9062C169.05 7.84373 164.283 2.9126 158.425 2.9126H158.43Z" fill="white"/>
<path d="M143.938 13.2588H138.113C137.636 13.2588 137.246 13.6596 137.246 14.1554C137.246 14.6511 137.636 15.0519 138.113 15.0519H143.03C142.819 17.3859 141.78 19.5514 140.103 21.15C138.401 22.7748 136.19 23.669 133.879 23.669C128.81 23.669 124.688 19.402 124.688 14.1554C124.688 8.90878 128.81 4.64177 133.879 4.64177C137.258 4.64177 140.358 6.5535 141.967 9.6322C142.079 9.84567 142.265 9.99984 142.493 10.0686C142.714 10.1327 142.945 10.1089 143.147 9.9951C143.568 9.76028 143.724 9.21475 143.496 8.7807C141.582 5.12089 137.897 2.84863 133.879 2.84863C127.854 2.84863 122.952 7.9197 122.952 14.1554C122.952 20.391 127.854 25.4621 133.879 25.4621C139.904 25.4621 144.806 20.391 144.806 14.1554C144.806 13.662 144.416 13.2588 143.938 13.2588V13.2588Z" fill="white"/>
<path d="M117.453 2.87744C116.977 2.87744 116.592 3.27592 116.592 3.7669V24.6963C116.592 25.1873 116.98 25.5858 117.453 25.5858C117.926 25.5858 118.313 25.1873 118.313 24.6963V3.7669C118.313 3.27592 117.926 2.87744 117.453 2.87744Z" fill="white"/>
<path d="M62.4151 2.6875C61.9372 2.6875 61.5497 3.07412 61.5497 3.55086V22.4263L43.5374 3.06463C43.2901 2.80847 42.9193 2.73019 42.5912 2.86302C42.2631 2.99584 42.0491 3.30893 42.0491 3.66471V24.6961C42.0491 25.1729 42.4366 25.5595 42.9145 25.5595C43.3924 25.5595 43.7799 25.1729 43.7799 24.6961V5.81126L61.7922 25.1705C62.0323 25.4196 62.4198 25.5026 62.7408 25.3721C63.0689 25.2393 63.2829 24.9262 63.2829 24.5704V3.55323C63.2829 3.07649 62.8953 2.68987 62.4175 2.68987L62.4151 2.6875Z" fill="white"/>
<path d="M111.038 2.88653C110.834 2.78217 110.603 2.76557 110.387 2.8391C110.166 2.915 109.985 3.07391 109.883 3.29212L100.717 22.5257L91.5542 3.29212C91.4519 3.07628 91.2712 2.915 91.0501 2.8391C90.8338 2.76557 90.6031 2.78217 90.3987 2.88653C89.9731 3.10237 89.7972 3.63842 90.0064 4.07721L99.9445 24.9331C100.09 25.2343 100.391 25.4288 100.717 25.4288C101.043 25.4288 101.347 25.2343 101.49 24.9331L111.428 4.07721C111.637 3.63842 111.461 3.10475 111.036 2.88653H111.038Z" fill="white"/>
<path d="M24.5362 0.692588V28H17.5272L11.6523 18.9537C11.0009 17.9504 9.88581 17.3455 8.68753 17.3455C6.73557 17.3455 5.15451 18.9228 5.15451 20.8701V28H0V1.2144C1.23632 0.557391 2.65096 0 5.04514 0C10.901 0 10.901 3.33723 16.7593 3.33723C20.8986 3.33723 22.1135 1.67217 24.5362 0.692588V0.692588Z" fill="#0057C1"/>
<path d="M24.5362 28H17.5272L11.6523 18.9537C11.0009 17.9504 9.88581 17.3455 8.68753 17.3455C6.73557 17.3455 5.15451 18.9228 5.15451 20.8701V28H0V11.6103C1.23632 10.9509 2.65096 10.3936 5.04514 10.3936C10.901 10.3936 10.901 13.7308 16.7593 13.7308C20.8986 13.7308 22.1135 12.0657 24.5362 11.0861V28V28Z" fill="#00B6EA"/>
</svg>
