<svg width="363" height="126" viewBox="0 0 363 126" fill="none" xmlns="http://www.w3.org/2000/svg">
<mask id="path-1-inside-1_331_31" fill="white">
<path fill-rule="evenodd" clip-rule="evenodd" d="M324.635 25H29V101H324.635L363 101L324.635 76.1837L324.635 25Z"/>
</mask>
<path fill-rule="evenodd" clip-rule="evenodd" d="M324.635 25H29V101H324.635L363 101L324.635 76.1837L324.635 25Z" fill="#F9F9F9"/>
<path d="M29 25V24H28V25H29ZM324.635 25L325.635 25L325.635 24H324.635V25ZM29 101H28V102H29V101ZM324.635 101L324.635 102L324.635 102L324.635 101ZM363 101L363 102L366.387 102L363.543 100.16L363 101ZM324.635 76.1837L323.635 76.1837L323.635 76.7278L324.092 77.0233L324.635 76.1837ZM29 26H324.635V24H29V26ZM30 101V25H28V101H30ZM324.635 100H29V102H324.635V100ZM324.635 102L363 102L363 100L324.635 100L324.635 102ZM363.543 100.16L325.178 75.344L324.092 77.0233L362.457 101.84L363.543 100.16ZM323.635 25L323.635 76.1837L325.635 76.1837L325.635 25L323.635 25Z" fill="#CCCCCC" mask="url(#path-1-inside-1_331_31)"/>
<path d="M82.99 67.7L83.65 69.86C86.26 69.11 89.62 68.12 92.8 67.13L92.5 65.09C89.02 66.08 85.45 67.07 82.99 67.7ZM83.35 57.86V59.99H93.4V57.86H83.35ZM87.46 51.83V76.55C87.46 76.97 87.31 77.12 86.89 77.12C86.5 77.12 85.21 77.15 83.8 77.09C84.07 77.69 84.37 78.62 84.46 79.19C86.53 79.19 87.79 79.13 88.57 78.77C89.38 78.44 89.65 77.81 89.65 76.55V51.83H87.46ZM96.76 52.91V55.01H104.62V52.91H96.76ZM93.28 65.06V67.19H107.11V65.06H93.28ZM106.33 65.06V65.42C104.08 72.11 97.72 75.98 90.88 77.42C91.3 77.9 91.81 78.86 92.02 79.46C99.34 77.66 105.97 73.52 108.64 65.63L107.17 64.97L106.75 65.06H106.33ZM96.04 66.62L94.09 67.31C96.88 73.52 102.07 77.75 109.3 79.46C109.63 78.83 110.23 77.87 110.74 77.39C103.69 75.95 98.47 72.08 96.04 66.62ZM96.19 52.91V56.21C96.19 58.34 95.65 60.83 92.29 62.66C92.71 63.02 93.49 63.89 93.76 64.31C97.48 62.21 98.32 58.97 98.32 56.27V52.91H96.19ZM103.57 52.91V59.81C103.57 62.09 104.02 62.96 106.12 62.96C106.51 62.96 108.16 62.96 108.64 62.96C109.27 62.96 109.9 62.93 110.29 62.78C110.2 62.27 110.14 61.43 110.11 60.86C109.72 60.95 109.03 61.01 108.61 61.01C108.19 61.01 106.69 61.01 106.27 61.01C105.79 61.01 105.7 60.71 105.7 59.84V52.91H103.57Z" fill="#696969"/>
<path d="M125.29 54.17V79.46H127.39V54.17H125.29ZM121 60.44V62.54H131.38V60.44H121ZM125.32 61.22C124.39 64.88 122.23 69.53 120.25 71.93C120.64 72.5 121.21 73.43 121.45 74.09C123.58 71.3 125.71 65.99 126.79 61.79L125.32 61.22ZM129.52 52.19C127.48 53.09 124 53.87 121 54.38C121.27 54.89 121.57 55.67 121.66 56.15C124.75 55.76 128.44 55.01 130.96 54.02L129.52 52.19ZM127.3 63.2L126.28 64.1C127.06 65.09 129.01 67.88 129.61 69.05L130.96 67.25C130.42 66.53 127.96 63.8 127.3 63.2ZM130.9 54.92V56.87H148.12V54.92H130.9ZM135.1 60.2H143.62V62.96H135.1V60.2ZM133.09 58.52V64.61H145.75V58.52H133.09ZM131.2 66.32V79.4H133.27V68.21H146.41V66.32H131.2ZM145.57 66.32V77.27C145.57 77.57 145.45 77.66 145.18 77.66C144.88 77.69 143.89 77.69 142.84 77.66C143.08 78.17 143.35 78.92 143.44 79.43C145.09 79.43 146.11 79.43 146.8 79.1C147.49 78.8 147.64 78.29 147.64 77.3V66.32H145.57ZM137.17 52.22C137.8 53.48 138.49 55.13 138.76 56.15L140.92 55.49C140.65 54.47 139.93 52.85 139.27 51.68L137.17 52.22ZM137.02 71.6H141.76V74.45H137.02V71.6ZM135.34 69.95V76.07H143.53V69.95H135.34Z" fill="#696969"/>
<path d="M163 72.14V73.85H179.02V72.14H163ZM158.68 67.58V69.41H185.35V67.58H158.68ZM168.13 65.3C166.78 68.18 163.48 71.09 157.99 72.83C158.44 73.16 159.07 73.91 159.31 74.45C165.1 72.38 168.58 69.23 170.38 65.66L168.13 65.3ZM177.52 68.12L175.75 68.84C177.7 71.36 181.3 73.67 184.66 74.75C184.99 74.21 185.62 73.37 186.13 72.95C182.83 72.14 179.26 70.22 177.52 68.12ZM178.21 72.14V72.44C177.94 75.74 177.64 77.09 177.22 77.48C176.98 77.72 176.71 77.75 176.23 77.75C175.72 77.75 174.34 77.72 172.93 77.6C173.23 78.08 173.47 78.86 173.5 79.37C174.97 79.46 176.38 79.46 177.07 79.43C177.88 79.37 178.42 79.22 178.87 78.77C179.56 78.11 179.89 76.58 180.25 73.01C180.28 72.71 180.34 72.14 180.34 72.14H178.21ZM170.2 69.98C169.57 74.15 167.89 76.61 161.11 77.81C161.5 78.2 162.04 78.98 162.22 79.49C169.51 78.02 171.55 75.05 172.3 69.98H170.2ZM165.82 51.83V57.11H168.01V51.83H165.82ZM175.84 51.83V57.11H178.06V51.83H175.84ZM164.38 62.39H179.71V64.37H164.38V62.39ZM164.38 59.03H179.71V60.95H164.38V59.03ZM162.19 57.56V65.84H181.96V57.56H162.19ZM158.86 53.87V55.64H171.55V53.87H158.86ZM172.57 53.87V55.64H185.23V53.87H172.57Z" fill="#696969"/>
<path d="M196.09 70.28V72.17H222.91V70.28H196.09ZM201.31 58.85V60.44H219.85V58.85H201.31ZM201.31 62.45V64.07H219.94V62.45H201.31ZM209.2 56.27V67.04H211.33V56.27H209.2ZM208.3 68.24V79.37H210.55V68.24H208.3ZM202.45 51.77C201.13 54.41 198.7 57.74 195.4 60.26C195.91 60.59 196.66 61.25 197.02 61.73C200.5 58.88 203.02 55.34 204.76 52.19L202.45 51.77ZM208.36 52.31C209.05 53.48 209.8 55.07 210.1 56.06L212.32 55.37C211.99 54.38 211.18 52.85 210.46 51.68L208.36 52.31ZM200.41 66.14V67.94H222.07V66.14H200.41ZM201.01 55.01L199.66 56.39V68.87H201.88V56.84H221.08V55.01H201.01ZM204.49 73.61C202.54 74.96 198.79 76.16 195.7 76.7C196.18 77.12 196.81 77.9 197.11 78.44C200.23 77.75 204.13 76.13 206.23 74.45L204.49 73.61ZM212.29 74.87C215.29 75.83 219.31 77.33 221.38 78.23L222.61 76.58C220.48 75.68 216.46 74.3 213.52 73.43L212.29 74.87Z" fill="#696969"/>
<path d="M234.88 57.17V71.45H237.13V59.39H256.72V71.3H259.06V57.17H234.88ZM236.08 67.37V69.56H258.07V67.37H236.08ZM245.74 51.8V79.37H248.08V51.8H245.74Z" fill="#696969"/>
</svg>
