<svg width="1228" height="125" viewBox="0 0 1228 125" fill="none" xmlns="http://www.w3.org/2000/svg">
<g clip-path="url(#clip0_813_687)">
<rect width="1228" height="125" fill="#0057C1"/>
<path d="M1166.49 17.5688C1135.73 17.5688 1135.73 0 1105.03 0C1074.28 0 1074.28 17.5688 1043.58 17.5688C1012.82 17.5688 1012.82 0 982.126 0C951.37 0 951.37 17.5688 920.673 17.5688C889.916 17.5688 889.916 0 859.219 0C828.463 0 828.463 17.5688 797.766 17.5688C767.009 17.5688 767.009 0 736.312 0C705.556 0 705.556 17.5688 674.859 17.5688C644.519 17.5688 644.162 0.476441 614.595 0C614.417 0 614.179 0 614 0C613.822 0 613.584 0 613.405 0C583.838 0.416886 583.422 17.5688 553.141 17.5688C522.385 17.5688 522.385 0 491.688 0C460.931 0 460.931 17.5688 430.234 17.5688C399.478 17.5688 399.478 0 368.781 0C338.024 0 338.024 17.5688 307.327 17.5688C276.571 17.5688 276.571 0 245.874 0C215.117 0 215.117 17.5688 184.42 17.5688C153.664 17.5688 153.664 0 122.967 0C92.2101 0 92.2101 17.5688 61.5131 17.5688C30.7566 17.5688 30.7566 0 0.0595703 0V315.106H613.465H614.654H1228.06V0C1197.24 0 1197.24 17.5688 1166.49 17.5688Z" fill="#00B6EA"/>
<path d="M1166.49 40.5688C1135.73 40.5688 1135.73 23 1105.03 23C1074.28 23 1074.28 40.5688 1043.58 40.5688C1012.82 40.5688 1012.82 23 982.125 23C951.369 23 951.369 40.5688 920.672 40.5688C889.915 40.5688 889.915 23 859.218 23C828.462 23 828.462 40.5688 797.765 40.5688C767.008 40.5688 767.008 23 736.311 23C705.555 23 705.555 40.5688 674.858 40.5688C644.518 40.5688 644.161 23.4764 614.594 23C614.416 23 614.178 23 613.999 23C613.821 23 613.583 23 613.404 23C583.837 23.4169 583.421 40.5688 553.14 40.5688C522.384 40.5688 522.384 23 491.687 23C460.93 23 460.93 40.5688 430.233 40.5688C399.477 40.5688 399.477 23 368.78 23C338.023 23 338.023 40.5688 307.326 40.5688C276.57 40.5688 276.57 23 245.873 23C215.116 23 215.116 40.5688 184.419 40.5688C153.663 40.5688 153.663 23 122.966 23C92.2092 23 92.2092 40.5688 61.5121 40.5688C30.7556 40.5688 30.7556 23 0.0585938 23V338.106H613.464H614.653H1228.06V23C1197.24 23 1197.24 40.5688 1166.49 40.5688Z" fill="#FFA300"/>
<path d="M1166.49 64.5688C1135.73 64.5688 1135.73 47 1105.03 47C1074.28 47 1074.28 64.5688 1043.58 64.5688C1012.82 64.5688 1012.82 47 982.126 47C951.37 47 951.37 64.5688 920.673 64.5688C889.916 64.5688 889.916 47 859.219 47C828.463 47 828.463 64.5688 797.766 64.5688C767.009 64.5688 767.009 47 736.312 47C705.556 47 705.556 64.5688 674.859 64.5688C644.519 64.5688 644.162 47.4764 614.595 47C614.416 47 614.178 47 614 47C613.822 47 613.584 47 613.405 47C583.838 47.4169 583.422 64.5688 553.141 64.5688C522.385 64.5688 522.385 47 491.688 47C460.931 47 460.931 64.5688 430.234 64.5688C399.478 64.5688 399.478 47 368.781 47C338.024 47 338.024 64.5688 307.327 64.5688C276.571 64.5688 276.571 47 245.874 47C215.117 47 215.117 64.5688 184.42 64.5688C153.664 64.5688 153.664 47 122.967 47C92.2101 47 92.2101 64.5688 61.513 64.5688C30.7565 64.5688 30.7565 47 0 47V362.106H613.405H614.595H1228V47C1197.24 47 1197.24 64.5688 1166.49 64.5688Z" fill="white"/>
<path d="M1166.43 89.5688C1135.67 89.5688 1135.67 72 1104.97 72C1074.22 72 1074.22 89.5688 1043.52 89.5688C1012.76 89.5688 1012.76 72 982.067 72C951.31 72 951.31 89.5688 920.613 89.5688C889.857 89.5688 889.857 72 859.16 72C828.403 72 828.403 89.5688 797.706 89.5688C766.95 89.5688 766.95 72 736.253 72C705.496 72 705.496 89.5688 674.799 89.5688C644.459 89.5688 644.102 72.4764 614.535 72C614.357 72 614.119 72 613.94 72C613.762 72 613.524 72 613.346 72C583.779 72.4169 583.362 89.5688 553.082 89.5688C522.325 89.5688 522.325 72 491.628 72C460.872 72 460.872 89.5688 430.175 89.5688C399.418 89.5688 399.418 72 368.721 72C337.965 72 337.965 89.5688 307.268 89.5688C276.511 89.5688 276.511 72 245.814 72C215.058 72 215.058 89.5688 184.361 89.5688C153.604 89.5688 153.604 72 122.907 72C92.1506 72 92.1506 89.5688 61.4535 89.5688C30.697 89.5688 30.697 72 0 72V387.106H613.405H614.595H1228V72C1197.18 72 1197.18 89.5688 1166.43 89.5688Z" fill="black"/>
</g>
<defs>
<clipPath id="clip0_813_687">
<rect width="1228" height="125" fill="white"/>
</clipPath>
</defs>
</svg>
