<svg width="316" height="27" viewBox="0 0 316 27" fill="none" xmlns="http://www.w3.org/2000/svg">
<path d="M6.05806 21.3077L0 0.692308H7.92208L10.6404 13.3077H10.7181L13.7471 0.692308H20.2712L23.3002 13.3077H23.3779L26.0963 0.692308H34.096L27.9603 21.3077H19.8829L17.0868 9.92308H17.0092L14.1355 21.3846H6.05806V21.3077Z" fill="url(#paint0_linear_258_21)"/>
<path d="M36.0377 21.3077V0.692308H58.173V5.69231H44.2705V8.46154H57.1633V13.4615H44.2705V16.2308H58.173V21.2308H36.0377V21.3077Z" fill="url(#paint1_linear_258_21)"/>
<path d="M60.8913 0.692308H79.6092C83.7256 0.692308 85.7449 2.38462 85.7449 5.84615C85.7449 6.76923 85.5119 7.61538 85.1236 8.30769C84.6576 9 84.1139 9.53846 83.3372 9.84615V9.92308C84.5799 10.2308 85.5119 10.9231 86.1332 12C86.6769 12.8462 86.9099 13.6923 86.9099 14.6923C86.9099 19.1538 84.1916 21.3846 78.7548 21.3846H60.8913V0.692308ZM68.9687 5.76923V8.46154H75.1821C76.5802 8.46154 77.2015 8 77.2015 7.07692C77.2015 6.23077 76.5025 5.76923 75.1821 5.76923H68.9687ZM68.9687 13.0769V16.3077H75.9588C77.3568 16.3077 78.0558 15.7692 78.0558 14.6923C78.0558 13.6154 77.3568 13.0769 75.9588 13.0769H68.9687Z" fill="url(#paint2_linear_258_21)"/>
<path d="M101.667 4V0H108.967V4H101.667ZM101.667 21.3077V5.53846H108.967V21.3077H101.667Z" fill="url(#paint3_linear_258_21)"/>
<path d="M112.463 5.53846H119.53V7.53846H119.608C120.074 6.92308 120.851 6.38462 121.86 5.92308C123.181 5.38462 124.579 5.07692 126.21 5.07692C128.384 5.07692 130.015 5.53846 131.258 6.53846C132.578 7.61539 133.277 9.15385 133.277 11.3077V21.3846H125.977V13.1538C125.977 11.2308 125.045 10.3077 123.181 10.3077C120.928 10.3077 119.763 11.5385 119.763 14.0769V21.3846H112.463V5.53846Z" fill="url(#paint4_linear_258_21)"/>
<path d="M148.656 15.7692L141.51 15.0769C139.491 14.8462 138.015 14.3077 137.161 13.5385C136.384 12.7692 135.996 11.6923 135.996 10.2308C135.996 8.38462 136.85 7 138.636 6.15385C140.345 5.30769 142.986 4.84615 146.559 4.84615C153.471 4.84615 156.966 6.61539 157.121 10.2308H148.889C148.889 9.30769 147.957 8.84615 146.17 8.84615C144.462 8.84615 143.607 9.23077 143.607 9.92308C143.607 10.4615 144.229 10.7692 145.549 10.9231L152.461 11.5385C156.112 11.8462 157.898 13.4615 157.898 16.3077C157.898 18.3077 156.966 19.7692 155.18 20.6154C153.393 21.4615 150.52 21.9231 146.636 21.9231C142.831 21.9231 140.034 21.4615 138.326 20.6154C136.617 19.7692 135.685 18.3077 135.53 16.3846H144.073C144.151 17.0769 144.539 17.5385 145.161 17.7692C145.549 17.9231 146.17 18 147.025 18C148.656 18 149.432 17.6154 149.432 16.7692C149.665 16.1538 149.355 15.8462 148.656 15.7692Z" fill="url(#paint5_linear_258_21)"/>
<path d="M160.539 27V5.53846H167.606V7.38462H167.684C169.004 5.84615 171.179 5.07692 174.208 5.07692C176.771 5.07692 178.868 5.76923 180.499 7.07692C182.363 8.61538 183.295 10.6923 183.295 13.4615C183.295 16.2308 182.363 18.3846 180.499 19.8462C178.868 21.2308 176.771 21.8462 174.208 21.8462C171.257 21.8462 169.082 21.0769 167.839 19.6154V26.8462H160.539V27ZM167.762 13.5385C167.762 15.9231 169.082 17.1538 171.8 17.1538C173.043 17.1538 174.053 16.7692 174.752 16.0769C175.451 15.4615 175.762 14.6154 175.762 13.5385C175.762 11.1538 174.441 9.92308 171.8 9.92308C169.16 9.92308 167.762 11.1538 167.762 13.5385Z" fill="url(#paint6_linear_258_21)"/>
<path d="M185.858 4V0H193.159V4H185.858ZM185.858 21.3077V5.53846H193.159V21.3077H185.858Z" fill="url(#paint7_linear_258_21)"/>
<path d="M196.654 21.3077V5.53846H203.722V8.53846H203.799C205.586 6.23077 207.838 5.07692 210.557 5.07692C211.411 5.07692 212.188 5.15385 212.964 5.23077V11.6923C211.411 11.3077 210.168 11.0769 209.314 11.0769C205.741 11.0769 203.955 12.4615 203.955 15.3077V21.2308H196.654V21.3077Z" fill="url(#paint8_linear_258_21)"/>
<path d="M222.44 10.3077H215.139C215.527 8.15385 216.615 6.76923 218.323 6C219.954 5.23077 222.673 4.92308 226.634 4.92308C230.362 4.92308 233.08 5.38462 234.633 6.38462C236.187 7.30769 237.041 9 237.041 11.3077V18.9231C237.041 19.9231 237.274 20.6923 237.74 21.3846H230.284C230.129 20.9231 230.051 20.3846 230.051 19.8462C228.42 21.3077 225.779 22.0769 222.051 22.0769C219.411 22.0769 217.469 21.6923 216.226 20.9231C214.751 20.0769 214.052 18.6923 214.052 16.7692C214.052 13.6923 216.537 12 221.508 11.7692L227.643 11.4615C228.964 11.3846 229.585 11 229.585 10.1538C229.585 9.15385 228.42 8.61539 226.168 8.61539C223.993 8.53846 222.75 9.15385 222.44 10.3077ZM229.74 14.8462V14.1538C228.964 14.3077 227.022 14.5385 223.838 14.8462C222.517 15 221.818 15.4615 221.818 16.3846C221.818 17.6154 222.75 18.1538 224.537 18.1538C227.954 18.1538 229.74 17.0769 229.74 14.8462Z" fill="url(#paint9_linear_258_21)"/>
<path d="M238.983 10.0769V5.53846H242.4V0.461538H249.701V5.53846H253.662V10.0769H249.701V15.6923C249.701 16.3846 249.856 16.8462 250.167 17C250.4 17.1538 251.021 17.2308 251.876 17.2308C252.264 17.2308 252.885 17.2308 253.817 17.2308V21.3846C252.109 21.6154 250.322 21.6923 248.536 21.6923C246.206 21.6923 244.653 21.3846 243.798 20.7692C242.866 20.0769 242.4 18.6923 242.4 16.5385V10H238.983V10.0769Z" fill="url(#paint10_linear_258_21)"/>
<path d="M256.07 4V0H263.37V4H256.07ZM256.07 21.3077V5.53846H263.37V21.3077H256.07Z" fill="url(#paint11_linear_258_21)"/>
<path d="M266.011 13.4615C266.011 10.5385 266.943 8.38462 268.885 7C270.749 5.61539 273.778 4.92308 277.817 4.92308C281.933 4.92308 284.884 5.61539 286.748 7C288.612 8.38462 289.622 10.5385 289.622 13.4615C289.622 16.3846 288.69 18.5385 286.748 19.9231C284.807 21.3077 281.855 22 277.817 22C273.7 22 270.749 21.3077 268.885 19.9231C266.943 18.5385 266.011 16.3846 266.011 13.4615ZM273.623 13.4615C273.623 16.0769 275.021 17.3077 277.817 17.3077C280.613 17.3077 282.011 16 282.011 13.4615C282.011 10.9231 280.613 9.61539 277.817 9.61539C275.021 9.61539 273.623 10.8462 273.623 13.4615Z" fill="url(#paint12_linear_258_21)"/>
<path d="M292.263 5.53846H299.331V7.53846H299.408C299.874 6.92308 300.651 6.38462 301.661 5.92308C302.981 5.38462 304.379 5.07692 306.01 5.07692C308.185 5.07692 309.816 5.53846 311.058 6.53846C312.379 7.61539 313.078 9.15385 313.078 11.3077V21.3846H305.777V13.1538C305.777 11.2308 304.845 10.3077 302.981 10.3077C300.729 10.3077 299.564 11.5385 299.564 14.0769V21.3846H292.263V5.53846Z" fill="url(#paint13_linear_258_21)"/>
<defs>
<linearGradient id="paint0_linear_258_21" x1="11" y1="-7.42825e-05" x2="313" y2="17.5" gradientUnits="userSpaceOnUse">
<stop stop-color="#003B64"/>
<stop offset="1" stop-color="#00A8B9"/>
</linearGradient>
<linearGradient id="paint1_linear_258_21" x1="11" y1="-7.42825e-05" x2="313" y2="17.5" gradientUnits="userSpaceOnUse">
<stop stop-color="#003B64"/>
<stop offset="1" stop-color="#00A8B9"/>
</linearGradient>
<linearGradient id="paint2_linear_258_21" x1="11" y1="-7.42825e-05" x2="313" y2="17.5" gradientUnits="userSpaceOnUse">
<stop stop-color="#003B64"/>
<stop offset="1" stop-color="#00A8B9"/>
</linearGradient>
<linearGradient id="paint3_linear_258_21" x1="11" y1="-7.42825e-05" x2="313" y2="17.5" gradientUnits="userSpaceOnUse">
<stop stop-color="#003B64"/>
<stop offset="1" stop-color="#00A8B9"/>
</linearGradient>
<linearGradient id="paint4_linear_258_21" x1="11" y1="-7.42825e-05" x2="313" y2="17.5" gradientUnits="userSpaceOnUse">
<stop stop-color="#003B64"/>
<stop offset="1" stop-color="#00A8B9"/>
</linearGradient>
<linearGradient id="paint5_linear_258_21" x1="11" y1="-7.42825e-05" x2="313" y2="17.5" gradientUnits="userSpaceOnUse">
<stop stop-color="#003B64"/>
<stop offset="1" stop-color="#00A8B9"/>
</linearGradient>
<linearGradient id="paint6_linear_258_21" x1="11" y1="-7.42825e-05" x2="313" y2="17.5" gradientUnits="userSpaceOnUse">
<stop stop-color="#003B64"/>
<stop offset="1" stop-color="#00A8B9"/>
</linearGradient>
<linearGradient id="paint7_linear_258_21" x1="11" y1="-7.42825e-05" x2="313" y2="17.5" gradientUnits="userSpaceOnUse">
<stop stop-color="#003B64"/>
<stop offset="1" stop-color="#00A8B9"/>
</linearGradient>
<linearGradient id="paint8_linear_258_21" x1="11" y1="-7.42825e-05" x2="313" y2="17.5" gradientUnits="userSpaceOnUse">
<stop stop-color="#003B64"/>
<stop offset="1" stop-color="#00A8B9"/>
</linearGradient>
<linearGradient id="paint9_linear_258_21" x1="11" y1="-7.42825e-05" x2="313" y2="17.5" gradientUnits="userSpaceOnUse">
<stop stop-color="#003B64"/>
<stop offset="1" stop-color="#00A8B9"/>
</linearGradient>
<linearGradient id="paint10_linear_258_21" x1="11" y1="-7.42825e-05" x2="313" y2="17.5" gradientUnits="userSpaceOnUse">
<stop stop-color="#003B64"/>
<stop offset="1" stop-color="#00A8B9"/>
</linearGradient>
<linearGradient id="paint11_linear_258_21" x1="11" y1="-7.42825e-05" x2="313" y2="17.5" gradientUnits="userSpaceOnUse">
<stop stop-color="#003B64"/>
<stop offset="1" stop-color="#00A8B9"/>
</linearGradient>
<linearGradient id="paint12_linear_258_21" x1="11" y1="-7.42825e-05" x2="313" y2="17.5" gradientUnits="userSpaceOnUse">
<stop stop-color="#003B64"/>
<stop offset="1" stop-color="#00A8B9"/>
</linearGradient>
<linearGradient id="paint13_linear_258_21" x1="11" y1="-7.42825e-05" x2="313" y2="17.5" gradientUnits="userSpaceOnUse">
<stop stop-color="#003B64"/>
<stop offset="1" stop-color="#00A8B9"/>
</linearGradient>
</defs>
</svg>
