<svg width="118" height="31" viewBox="0 0 118 31" fill="none" xmlns="http://www.w3.org/2000/svg">
<path d="M3.328 11.824L0 0.4H4.368L5.84 7.376H5.872L7.552 0.4H11.152L12.816 7.376H12.848L14.32 0.4H18.688L15.344 11.824H10.912L9.36 5.488H9.328L7.76 11.824H3.328Z" fill="url(#paint0_linear_328_247)"/>
<path d="M22.6545 6.368H27.4225C27.3798 5.89867 27.1452 5.52533 26.7185 5.248C26.2918 4.97067 25.7372 4.832 25.0545 4.832C23.6465 4.832 22.8465 5.344 22.6545 6.368ZM27.1505 9.2H31.4065C31.0972 10.1387 30.4305 10.864 29.4065 11.376C28.3398 11.9093 26.9265 12.176 25.1665 12.176C20.7612 12.176 18.5585 10.5973 18.5585 7.44C18.5585 5.936 19.1025 4.77333 20.1905 3.952C21.2892 3.13067 22.8252 2.72 24.7985 2.72C29.2892 2.72 31.5078 4.608 31.4545 8.384H22.6545C22.6545 8.768 22.8358 9.10933 23.1985 9.408C23.6465 9.78133 24.2705 9.968 25.0705 9.968C26.0518 9.968 26.7452 9.712 27.1505 9.2Z" fill="url(#paint1_linear_328_247)"/>
<path d="M32.9604 11.824V0H36.9604V4.064H36.9924C37.675 3.24267 38.8324 2.832 40.4644 2.832C41.8724 2.832 43.0244 3.20533 43.9204 3.952C44.9337 4.784 45.4404 5.968 45.4404 7.504C45.4404 9.04 44.9337 10.224 43.9204 11.056C43.0244 11.8027 41.8724 12.176 40.4644 12.176C38.8004 12.176 37.6004 11.7493 36.8644 10.896H36.8324V11.824H32.9604ZM36.9604 7.504C36.9604 8.82667 37.691 9.488 39.1524 9.488C40.6137 9.488 41.3444 8.82667 41.3444 7.504C41.3444 6.91733 41.163 6.448 40.8004 6.096C40.4057 5.712 39.8617 5.52 39.1684 5.52C37.6964 5.52 36.9604 6.18133 36.9604 7.504Z" fill="url(#paint2_linear_328_247)"/>
<path d="M1.168 27.824V16.4H5.68V27.824H1.168Z" fill="url(#paint3_linear_328_247)"/>
<path d="M7.7885 27.824V19.072H11.6605V20.16H11.6925C11.9378 19.8293 12.3538 19.536 12.9405 19.28C13.6445 18.9813 14.4338 18.832 15.3085 18.832C16.4818 18.832 17.4045 19.0987 18.0765 19.632C18.8125 20.2187 19.1805 21.0933 19.1805 22.256V27.824H15.1805V23.296C15.1805 22.24 14.6685 21.712 13.6445 21.712C12.4072 21.712 11.7885 22.4053 11.7885 23.792V27.824H7.7885Z" fill="url(#paint4_linear_328_247)"/>
<path d="M27.645 24.752L23.741 24.352C22.6317 24.2347 21.8423 23.9467 21.373 23.488C20.957 23.072 20.749 22.464 20.749 21.664C20.749 20.64 21.2343 19.8933 22.205 19.424C23.1437 18.9547 24.5997 18.72 26.573 18.72C30.3703 18.72 32.301 19.712 32.365 21.696H27.853C27.853 21.184 27.357 20.928 26.365 20.928C25.4157 20.928 24.941 21.1307 24.941 21.536C24.941 21.8347 25.2983 22.016 26.013 22.08L29.821 22.416C31.805 22.5867 32.797 23.4667 32.797 25.056C32.797 26.1653 32.301 26.9653 31.309 27.456C30.3277 27.936 28.765 28.176 26.621 28.176C24.5303 28.176 23.005 27.9413 22.045 27.472C21.0957 26.992 20.589 26.2027 20.525 25.104H25.229C25.2823 25.4773 25.485 25.728 25.837 25.856C26.0503 25.9307 26.3917 25.968 26.861 25.968C27.7463 25.968 28.189 25.744 28.189 25.296C28.189 24.9653 28.0077 24.784 27.645 24.752Z" fill="url(#paint5_linear_328_247)"/>
<path d="M34.1479 30.96V19.072H38.0199V20.112H38.0519C38.7879 19.2587 39.9879 18.832 41.6519 18.832C43.0599 18.832 44.2119 19.2053 45.1079 19.952C46.1212 20.784 46.6279 21.968 46.6279 23.504C46.6279 25.04 46.1212 26.224 45.1079 27.056C44.2119 27.8027 43.0599 28.176 41.6519 28.176C40.0199 28.176 38.8625 27.7653 38.1799 26.944H38.1479V30.96H34.1479ZM38.1479 23.504C38.1479 24.8267 38.8839 25.488 40.3559 25.488C41.0492 25.488 41.5932 25.296 41.9879 24.912C42.3505 24.56 42.5319 24.0907 42.5319 23.504C42.5319 22.1813 41.8012 21.52 40.3399 21.52C38.8785 21.52 38.1479 22.1813 38.1479 23.504Z" fill="url(#paint6_linear_328_247)"/>
<path d="M48.0697 27.824V19.072H52.0697V27.824H48.0697ZM48.0697 18.208V16H52.0697V18.208H48.0697Z" fill="url(#paint7_linear_328_247)"/>
<path d="M53.9916 27.824V19.072H57.8636V20.752H57.8956C58.877 19.472 60.1196 18.832 61.6236 18.832C62.0716 18.832 62.509 18.864 62.9356 18.928V22.512C62.0823 22.2987 61.4156 22.192 60.9356 22.192C58.973 22.192 57.9916 22.976 57.9916 24.544V27.824H53.9916Z" fill="url(#paint8_linear_328_247)"/>
<path d="M68.1338 21.728H64.1338C64.3684 20.5547 64.9444 19.7547 65.8617 19.328C66.7364 18.9227 68.2511 18.72 70.4057 18.72C72.4644 18.72 73.9257 18.9867 74.7897 19.52C75.6644 20.0427 76.1018 20.9493 76.1018 22.24V26.464C76.1018 26.9973 76.2244 27.4507 76.4697 27.824H72.3737C72.2991 27.568 72.2511 27.28 72.2298 26.96C71.3551 27.7707 69.8937 28.176 67.8457 28.176C66.4164 28.176 65.3498 27.9627 64.6458 27.536C63.8564 27.056 63.4618 26.2827 63.4618 25.216C63.4618 23.5093 64.8271 22.592 67.5577 22.464L70.9337 22.304C71.6484 22.272 72.0058 22.032 72.0058 21.584C72.0058 21.0187 71.3871 20.736 70.1497 20.736C68.9551 20.736 68.2831 21.0667 68.1338 21.728ZM72.1018 24.224V23.84C71.6751 23.936 70.5978 24.0587 68.8698 24.208C68.1444 24.272 67.7817 24.56 67.7817 25.072C67.7817 25.7333 68.2778 26.064 69.2698 26.064C71.1578 26.064 72.1018 25.4507 72.1018 24.224Z" fill="url(#paint9_linear_328_247)"/>
<path d="M77.1756 21.568V19.072H79.0316V16.256H83.0316V19.072H85.1916V21.568H83.0316V24.656C83.0316 25.04 83.1223 25.2853 83.3036 25.392C83.453 25.4773 83.7623 25.52 84.2316 25.52C84.4343 25.52 84.7916 25.5093 85.3036 25.488V27.824C84.365 27.952 83.3943 28.016 82.3916 28.016C81.1223 28.016 80.2583 27.84 79.7996 27.488C79.2876 27.0933 79.0316 26.32 79.0316 25.168V21.568H77.1756Z" fill="url(#paint10_linear_328_247)"/>
<path d="M86.5854 27.824V19.072H90.5854V27.824H86.5854ZM86.5854 18.208V16H90.5854V18.208H86.5854Z" fill="url(#paint11_linear_328_247)"/>
<path d="M96.2192 23.44C96.2192 24.8693 96.9819 25.584 98.5072 25.584C100.033 25.584 100.795 24.8693 100.795 23.44C100.795 22.0213 100.033 21.312 98.5072 21.312C96.9819 21.312 96.2192 22.0213 96.2192 23.44ZM92.0273 23.44C92.0273 21.8187 92.5446 20.6293 93.5792 19.872C94.6246 19.104 96.2672 18.72 98.5072 18.72C100.747 18.72 102.385 19.104 103.419 19.872C104.465 20.6293 104.987 21.8187 104.987 23.44C104.987 25.0613 104.465 26.256 103.419 27.024C102.385 27.792 100.747 28.176 98.5072 28.176C96.2672 28.176 94.6246 27.792 93.5792 27.024C92.5446 26.256 92.0273 25.0613 92.0273 23.44Z" fill="url(#paint12_linear_328_247)"/>
<path d="M106.429 27.824V19.072H110.301V20.16H110.333C110.578 19.8293 110.994 19.536 111.581 19.28C112.285 18.9813 113.074 18.832 113.949 18.832C115.122 18.832 116.045 19.0987 116.717 19.632C117.453 20.2187 117.821 21.0933 117.821 22.256V27.824H113.821V23.296C113.821 22.24 113.309 21.712 112.285 21.712C111.048 21.712 110.429 22.4053 110.429 23.792V27.824H106.429Z" fill="url(#paint13_linear_328_247)"/>
<defs>
<linearGradient id="paint0_linear_328_247" x1="4.19719" y1="-2.1762" x2="119.332" y2="-0.0365239" gradientUnits="userSpaceOnUse">
<stop stop-color="#003B64"/>
<stop offset="1" stop-color="#00A8B9"/>
</linearGradient>
<linearGradient id="paint1_linear_328_247" x1="4.19719" y1="-2.1762" x2="119.332" y2="-0.0365239" gradientUnits="userSpaceOnUse">
<stop stop-color="#003B64"/>
<stop offset="1" stop-color="#00A8B9"/>
</linearGradient>
<linearGradient id="paint2_linear_328_247" x1="4.19719" y1="-2.1762" x2="119.332" y2="-0.0365239" gradientUnits="userSpaceOnUse">
<stop stop-color="#003B64"/>
<stop offset="1" stop-color="#00A8B9"/>
</linearGradient>
<linearGradient id="paint3_linear_328_247" x1="4.19719" y1="-2.1762" x2="119.332" y2="-0.0365239" gradientUnits="userSpaceOnUse">
<stop stop-color="#003B64"/>
<stop offset="1" stop-color="#00A8B9"/>
</linearGradient>
<linearGradient id="paint4_linear_328_247" x1="4.19719" y1="-2.1762" x2="119.332" y2="-0.0365239" gradientUnits="userSpaceOnUse">
<stop stop-color="#003B64"/>
<stop offset="1" stop-color="#00A8B9"/>
</linearGradient>
<linearGradient id="paint5_linear_328_247" x1="4.19719" y1="-2.1762" x2="119.332" y2="-0.0365239" gradientUnits="userSpaceOnUse">
<stop stop-color="#003B64"/>
<stop offset="1" stop-color="#00A8B9"/>
</linearGradient>
<linearGradient id="paint6_linear_328_247" x1="4.19719" y1="-2.1762" x2="119.332" y2="-0.0365239" gradientUnits="userSpaceOnUse">
<stop stop-color="#003B64"/>
<stop offset="1" stop-color="#00A8B9"/>
</linearGradient>
<linearGradient id="paint7_linear_328_247" x1="4.19719" y1="-2.1762" x2="119.332" y2="-0.0365239" gradientUnits="userSpaceOnUse">
<stop stop-color="#003B64"/>
<stop offset="1" stop-color="#00A8B9"/>
</linearGradient>
<linearGradient id="paint8_linear_328_247" x1="4.19719" y1="-2.1762" x2="119.332" y2="-0.0365239" gradientUnits="userSpaceOnUse">
<stop stop-color="#003B64"/>
<stop offset="1" stop-color="#00A8B9"/>
</linearGradient>
<linearGradient id="paint9_linear_328_247" x1="4.19719" y1="-2.1762" x2="119.332" y2="-0.0365239" gradientUnits="userSpaceOnUse">
<stop stop-color="#003B64"/>
<stop offset="1" stop-color="#00A8B9"/>
</linearGradient>
<linearGradient id="paint10_linear_328_247" x1="4.19719" y1="-2.1762" x2="119.332" y2="-0.0365239" gradientUnits="userSpaceOnUse">
<stop stop-color="#003B64"/>
<stop offset="1" stop-color="#00A8B9"/>
</linearGradient>
<linearGradient id="paint11_linear_328_247" x1="4.19719" y1="-2.1762" x2="119.332" y2="-0.0365239" gradientUnits="userSpaceOnUse">
<stop stop-color="#003B64"/>
<stop offset="1" stop-color="#00A8B9"/>
</linearGradient>
<linearGradient id="paint12_linear_328_247" x1="4.19719" y1="-2.1762" x2="119.332" y2="-0.0365239" gradientUnits="userSpaceOnUse">
<stop stop-color="#003B64"/>
<stop offset="1" stop-color="#00A8B9"/>
</linearGradient>
<linearGradient id="paint13_linear_328_247" x1="4.19719" y1="-2.1762" x2="119.332" y2="-0.0365239" gradientUnits="userSpaceOnUse">
<stop stop-color="#003B64"/>
<stop offset="1" stop-color="#00A8B9"/>
</linearGradient>
</defs>
</svg>
